<?xml version="1.0" encoding="UTF-8" standalone="no"?>
<!-- Created with Inkscape (http://www.inkscape.org/) -->

<svg
   xmlns:dc="http://purl.org/dc/elements/1.1/"
   xmlns:cc="http://creativecommons.org/ns#"
   xmlns:rdf="http://www.w3.org/1999/02/22-rdf-syntax-ns#"
   xmlns:svg="http://www.w3.org/2000/svg"
   xmlns="http://www.w3.org/2000/svg"
   xmlns:xlink="http://www.w3.org/1999/xlink"
   xmlns:sodipodi="http://sodipodi.sourceforge.net/DTD/sodipodi-0.dtd"
   xmlns:inkscape="http://www.inkscape.org/namespaces/inkscape"
   width="413.42871"
   height="886.28943"
   id="svg2"
   sodipodi:version="0.32"
   inkscape:version="0.92.2 2405546, 2018-03-11"
   version="1.0"
   sodipodi:docname="Choir_dress_(Summer).svg"
   inkscape:output_extension="org.inkscape.output.svg.inkscape">
  <metadata
     id="metadata92">
    <rdf:RDF>
      <cc:Work
         rdf:about="">
        <dc:format>image/svg+xml</dc:format>
        <dc:type
           rdf:resource="http://purl.org/dc/dcmitype/StillImage" />
      </cc:Work>
    </rdf:RDF>
  </metadata>
  <defs
     id="defs4">
    <linearGradient
       id="linearGradient3467">
      <stop
         style="stop-color:#2e2e2e;stop-opacity:1;"
         offset="0"
         id="stop3469" />
      <stop
         style="stop-color:#0e0e0e;stop-opacity:1;"
         offset="1"
         id="stop3471" />
    </linearGradient>
    <linearGradient
       id="linearGradient3351">
      <stop
         style="stop-color:#fff7d5;stop-opacity:1;"
         offset="0"
         id="stop3353" />
      <stop
         style="stop-color:#ffd2d5;stop-opacity:1;"
         offset="1"
         id="stop3355" />
    </linearGradient>
    <radialGradient
       inkscape:collect="always"
       xlink:href="#linearGradient3351"
       id="radialGradient3554"
       gradientUnits="userSpaceOnUse"
       gradientTransform="matrix(1,0,0,1.088361,0,-45.533714)"
       cx="631.44635"
       cy="515.31458"
       fx="631.44635"
       fy="515.31458"
       r="29.32745" />
    <radialGradient
       inkscape:collect="always"
       xlink:href="#linearGradient3467"
       id="radialGradient3556"
       gradientUnits="userSpaceOnUse"
       gradientTransform="matrix(1,0,0,2.6095999,0,-1473.3669)"
       cx="376.25"
       cy="915.36218"
       fx="376.25"
       fy="915.36218"
       r="25.66662" />
    <radialGradient
       inkscape:collect="always"
       xlink:href="#linearGradient3467"
       id="radialGradient3558"
       gradientUnits="userSpaceOnUse"
       gradientTransform="matrix(1,0,0,2.6095999,0,-1471.8613)"
       cx="526.07855"
       cy="914.42682"
       fx="526.07855"
       fy="914.42682"
       r="25.66662" />
    <radialGradient
       inkscape:collect="always"
       xlink:href="#linearGradient3351"
       id="radialGradient3560"
       gradientUnits="userSpaceOnUse"
       gradientTransform="matrix(0.9938068,6.1337717e-8,-7.981037e-8,1.2931047,2.7631169,-49.453563)"
       cx="446.15323"
       cy="168.7231"
       fx="446.15323"
       fy="168.7231"
       r="57.085541" />
    <radialGradient
       inkscape:collect="always"
       xlink:href="#linearGradient3351"
       id="radialGradient3562"
       gradientUnits="userSpaceOnUse"
       gradientTransform="matrix(1,0,0,1.088361,6,-48.414359)"
       cx="270.67255"
       cy="525.28101"
       fx="270.67255"
       fy="525.28101"
       r="29.32745" />
  </defs>
  <sodipodi:namedview
     id="base"
     pagecolor="#ffffff"
     bordercolor="#666666"
     borderopacity="1.0"
     gridtolerance="10000"
     guidetolerance="10"
     objecttolerance="10"
     inkscape:pageopacity="0.0"
     inkscape:pageshadow="2"
     inkscape:zoom="1"
     inkscape:cx="100.14346"
     inkscape:cy="697.57799"
     inkscape:document-units="px"
     inkscape:current-layer="g3479"
     showguides="true"
     inkscape:guide-bbox="true"
     inkscape:window-width="1352"
     inkscape:window-height="655"
     inkscape:window-x="0"
     inkscape:window-y="0"
     showgrid="false"
     inkscape:window-maximized="0">
    <sodipodi:guide
       orientation="1,0"
       position="448.75,886"
       id="guide3252"
       inkscape:locked="false" />
    <sodipodi:guide
       orientation="0,1"
       position="490.37855,832.26468"
       id="guide3477"
       inkscape:locked="false" />
  </sodipodi:namedview>
  <g
     id="g3479"
     transform="matrix(0.9744695,0,0,0.9744695,-235.75273,-82.286387)">
    <path
       sodipodi:nodetypes="cccccccccccccccc"
       id="path3426"
       d="M 416.67782,241.53212 L 419.34828,220.0975 L 410.85785,192.08626 L 402.53378,190.04546 L 396.61699,163.34062 L 403.88561,156.45788 L 407.62389,118.27412 L 432.71826,97.06092 L 463.49808,97.164473 L 487.90097,117.56701 L 492.8819,157.16499 L 501.87667,164.23606 L 495.89229,189.84317 L 487.90097,192.08626 L 480.73634,220.0975 L 480.15961,241.27778"
       style="fill:url(#radialGradient3560);fill-opacity:1;fill-rule:evenodd;stroke:#ff8b88;stroke-width:2.01711798px;stroke-linecap:butt;stroke-linejoin:miter;stroke-opacity:1" />
    <path
       inkscape:connector-curvature="0"
       style="fill:#ffffff;fill-opacity:1;stroke:#000000;stroke-width:0.2091103;stroke-miterlimit:4;stroke-dasharray:none;stroke-opacity:1"
       d="m 416.69449,238.88605 0.83411,-13.41981 c 0,0 20.83227,8.55642 31.74736,8.66622 11.95853,0.1203 32.58403,-8.92613 32.58403,-8.92613 l -0.52754,14.78614 -3.45963,1.46597 -8.23717,3.09484 -6.91923,1.95462 -6.09551,1.46598 -5.76604,0.48866 h -5.60127 l -7.90769,-0.48866 -6.58976,-2.11752 -6.26023,-1.62886 z"
       id="path3696"
       sodipodi:nodetypes="ccscccccccccccc" />
    <path
       sodipodi:nodetypes="ccccccc"
       id="path3415"
       d="M 624.11891,483.89573 L 641.11891,510.89573 L 659.04785,523.15309 C 664.30743,545.6058 652.09299,549.24031 632.94734,545.41045 L 622.508,517.71375 L 602.61891,495.89573 L 624.11891,483.89573 z"
       style="fill:url(#radialGradient3554);fill-opacity:1;fill-rule:evenodd;stroke:#ff5353;stroke-width:1px;stroke-linecap:butt;stroke-linejoin:miter;stroke-opacity:1" />
    <path
       sodipodi:nodetypes="ccccccc"
       id="path3393"
       d="M 400.91662,850.30397 L 398.98738,956.81297 L 380.79748,981.34179 L 358.29996,971.22223 L 351.58338,952.40331 L 365.36362,907.75535 L 365.63922,849.38257"
       style="fill:url(#radialGradient3556);fill-opacity:1;fill-rule:evenodd;stroke:#000000;stroke-width:2px;stroke-linecap:butt;stroke-linejoin:miter;stroke-opacity:1" />
    <path
       sodipodi:nodetypes="ccccccc"
       id="path3436"
       d="M 501.41196,849.36858 L 503.3412,955.87758 L 521.5311,980.4064 L 544.02862,970.28684 L 550.7452,951.46792 L 536.96496,906.81996 L 536.68936,848.44718"
       style="fill:url(#radialGradient3558);fill-opacity:1;fill-rule:evenodd;stroke:#000000;stroke-width:2px;stroke-linecap:butt;stroke-linejoin:miter;stroke-opacity:1" />
    <path
       sodipodi:nodetypes="cccc"
       id="path3464"
       d="M 376.99469,381.32978 L 327.37466,919.83448 L 579.47276,919.68378 L 535.8621,382.28432"
       style="fill:#b2b2b2;fill-rule:evenodd;stroke:#000000;stroke-width:3.12436056;stroke-linecap:butt;stroke-linejoin:miter;stroke-miterlimit:4;stroke-dasharray:none;stroke-opacity:1;fill-opacity:1" />
    <path
       sodipodi:nodetypes="ccc"
       id="path3428"
       d="M 418.959,220.0975 L 448.75,230.54127 L 480.87264,220.0975"
       style="fill:none;fill-rule:evenodd;stroke:#ff8c89;stroke-width:2px;stroke-linecap:butt;stroke-linejoin:miter;stroke-opacity:1" />
    <path
       sodipodi:nodetypes="ccccccc"
       id="path3397"
       d="M 284,491.86218 L 267,518.86218 L 249.07106,531.11954 C 243.81148,553.57225 256.02592,557.20676 275.17157,553.3769 L 285.61091,525.6802 L 305.5,503.86218 L 284,491.86218 z"
       style="fill:url(#radialGradient3562);fill-opacity:1;fill-rule:evenodd;stroke:#ff5353;stroke-width:1px;stroke-linecap:butt;stroke-linejoin:miter;stroke-opacity:1" />
    <path
       sodipodi:nodetypes="ccccscsccccc"
       id="path3409"
       d="m 377.66978,392.17608 c -14.13847,-12.86603 -42.46734,80.69597 -63.89174,122.4744 L 272.46308,489.7056 337.16386,283.1308 c 17.07556,-27.21752 44.93086,-34.23207 72.52773,-42.34101 2.3321,-0.68525 4.66235,-1.37832 6.98409,-2.09205 9.05813,4.04902 20.42436,9.8462 31.88391,10.15143 11.77859,0.31373 23.63017,-4.99019 31.25781,-10.15143 46.98146,4.56352 72.44484,20.78266 84.18898,44.43306 l 74.83464,194.10236 -46.77164,32.74016 C 571.56189,459.75753 542.75289,365.26702 536.72292,392.26466"
       style="fill:#b2b2b2;fill-opacity:1;fill-rule:evenodd;stroke:#000000;stroke-width:3;stroke-linecap:butt;stroke-linejoin:miter;stroke-miterlimit:4;stroke-dasharray:none;stroke-opacity:1"
       inkscape:connector-curvature="0" />
    <path
       style="fill:#b2b2b2;fill-opacity:1;fill-rule:evenodd;stroke:#000000;stroke-width:2;stroke-linecap:butt;stroke-linejoin:round;stroke-miterlimit:4;stroke-dasharray:none;stroke-opacity:1"
       d="m 481.50478,227.81954 c -11.18965,4.45205 -18.45071,7.42354 -24.86529,8.75075 l 0.0521,12.00773 c 0,0 -5.17758,0.45354 -7.85484,0.45098 -2.65694,-0.003 -7.70059,-0.43721 -7.91897,-1.09235 l 0.15834,-11.47459 c -6.08001,-1.24517 -13.3739,-3.80087 -23.86114,-7.78869 l -0.52112,10.21188 c 16.59679,13.81951 50.68204,13.39782 64.26574,1.34288 z"
       id="path5251"
       inkscape:connector-curvature="0" />
    <path
       id="path3272"
       d="M 448.75,909.67149 L 448.75,250.17378"
       style="fill:none;fill-rule:evenodd;stroke:#000000;stroke-width:1.02397931px;stroke-linecap:butt;stroke-linejoin:miter;stroke-opacity:1" />
    <path
       id="path3274"
       d="M 328.91015,909.81772 L 577.77985,909.81772"
       style="fill:none;fill-rule:evenodd;stroke:#000000;stroke-width:0.99500144px;stroke-linecap:butt;stroke-linejoin:miter;stroke-opacity:1" />
    <path
       sodipodi:type="arc"
       style="opacity:1;fill:#b2b2b2;fill-opacity:1;fill-rule:nonzero;stroke:#000000;stroke-width:0.5;stroke-linecap:round;stroke-linejoin:round;stroke-miterlimit:4;stroke-dasharray:none;stroke-dashoffset:0;stroke-opacity:1"
       id="path3278"
       sodipodi:cx="451.4375"
       sodipodi:cy="253.73718"
       sodipodi:rx="1.625"
       sodipodi:ry="1.625"
       d="m 453.0625,253.73718 a 1.625,1.625 0 0 1 -1.625,1.625 1.625,1.625 0 0 1 -1.625,-1.625 1.625,1.625 0 0 1 1.625,-1.625 1.625,1.625 0 0 1 1.625,1.625 z"
       transform="matrix(2.0166667,0,0,2.0166667,-456.52396,-232.65364)" />
    <path
       sodipodi:type="arc"
       style="opacity:1;fill:#b2b2b2;fill-opacity:1;fill-rule:nonzero;stroke:#000000;stroke-width:0.5;stroke-linecap:round;stroke-linejoin:round;stroke-miterlimit:4;stroke-dasharray:none;stroke-dashoffset:0;stroke-opacity:1"
       id="path3280"
       sodipodi:cx="451.4375"
       sodipodi:cy="253.73718"
       sodipodi:rx="1.625"
       sodipodi:ry="1.625"
       d="m 453.0625,253.73718 a 1.625,1.625 0 0 1 -1.625,1.625 1.625,1.625 0 0 1 -1.625,-1.625 1.625,1.625 0 0 1 1.625,-1.625 1.625,1.625 0 0 1 1.625,1.625 z"
       transform="matrix(2.0166667,0,0,2.0166667,-456.52396,-212.65364)" />
    <path
       transform="matrix(2.0166667,0,0,2.0166667,-456.52396,-192.65364)"
       d="m 453.0625,253.73718 a 1.625,1.625 0 0 1 -1.625,1.625 1.625,1.625 0 0 1 -1.625,-1.625 1.625,1.625 0 0 1 1.625,-1.625 1.625,1.625 0 0 1 1.625,1.625 z"
       sodipodi:ry="1.625"
       sodipodi:rx="1.625"
       sodipodi:cy="253.73718"
       sodipodi:cx="451.4375"
       id="path3352"
       style="opacity:1;fill:#b2b2b2;fill-opacity:1;fill-rule:nonzero;stroke:#000000;stroke-width:0.5;stroke-linecap:round;stroke-linejoin:round;stroke-miterlimit:4;stroke-dasharray:none;stroke-dashoffset:0;stroke-opacity:1"
       sodipodi:type="arc" />
    <path
       transform="matrix(2.0166667,0,0,2.0166667,-456.52396,-172.65364)"
       d="m 453.0625,253.73718 a 1.625,1.625 0 0 1 -1.625,1.625 1.625,1.625 0 0 1 -1.625,-1.625 1.625,1.625 0 0 1 1.625,-1.625 1.625,1.625 0 0 1 1.625,1.625 z"
       sodipodi:ry="1.625"
       sodipodi:rx="1.625"
       sodipodi:cy="253.73718"
       sodipodi:cx="451.4375"
       id="path3354"
       style="opacity:1;fill:#b2b2b2;fill-opacity:1;fill-rule:nonzero;stroke:#000000;stroke-width:0.5;stroke-linecap:round;stroke-linejoin:round;stroke-miterlimit:4;stroke-dasharray:none;stroke-dashoffset:0;stroke-opacity:1"
       sodipodi:type="arc" />
    <path
       transform="matrix(2.0166667,0,0,2.0166667,-456.52396,-152.65364)"
       d="m 453.0625,253.73718 a 1.625,1.625 0 0 1 -1.625,1.625 1.625,1.625 0 0 1 -1.625,-1.625 1.625,1.625 0 0 1 1.625,-1.625 1.625,1.625 0 0 1 1.625,1.625 z"
       sodipodi:ry="1.625"
       sodipodi:rx="1.625"
       sodipodi:cy="253.73718"
       sodipodi:cx="451.4375"
       id="path3356"
       style="opacity:1;fill:#b2b2b2;fill-opacity:1;fill-rule:nonzero;stroke:#000000;stroke-width:0.5;stroke-linecap:round;stroke-linejoin:round;stroke-miterlimit:4;stroke-dasharray:none;stroke-dashoffset:0;stroke-opacity:1"
       sodipodi:type="arc" />
    <path
       transform="matrix(2.0166667,0,0,2.0166667,-456.52396,-132.65364)"
       d="m 453.0625,253.73718 a 1.625,1.625 0 0 1 -1.625,1.625 1.625,1.625 0 0 1 -1.625,-1.625 1.625,1.625 0 0 1 1.625,-1.625 1.625,1.625 0 0 1 1.625,1.625 z"
       sodipodi:ry="1.625"
       sodipodi:rx="1.625"
       sodipodi:cy="253.73718"
       sodipodi:cx="451.4375"
       id="path3358"
       style="opacity:1;fill:#b2b2b2;fill-opacity:1;fill-rule:nonzero;stroke:#000000;stroke-width:0.5;stroke-linecap:round;stroke-linejoin:round;stroke-miterlimit:4;stroke-dasharray:none;stroke-dashoffset:0;stroke-opacity:1"
       sodipodi:type="arc" />
    <path
       sodipodi:type="arc"
       style="opacity:1;fill:#b2b2b2;fill-opacity:1;fill-rule:nonzero;stroke:#000000;stroke-width:0.5;stroke-linecap:round;stroke-linejoin:round;stroke-miterlimit:4;stroke-dasharray:none;stroke-dashoffset:0;stroke-opacity:1"
       id="path3360"
       sodipodi:cx="451.4375"
       sodipodi:cy="253.73718"
       sodipodi:rx="1.625"
       sodipodi:ry="1.625"
       d="m 453.0625,253.73718 a 1.625,1.625 0 0 1 -1.625,1.625 1.625,1.625 0 0 1 -1.625,-1.625 1.625,1.625 0 0 1 1.625,-1.625 1.625,1.625 0 0 1 1.625,1.625 z"
       transform="matrix(2.0166667,0,0,2.0166667,-456.52396,-112.65364)" />
    <path
       sodipodi:type="arc"
       style="opacity:1;fill:#b2b2b2;fill-opacity:1;fill-rule:nonzero;stroke:#000000;stroke-width:0.5;stroke-linecap:round;stroke-linejoin:round;stroke-miterlimit:4;stroke-dasharray:none;stroke-dashoffset:0;stroke-opacity:1"
       id="path3362"
       sodipodi:cx="451.4375"
       sodipodi:cy="253.73718"
       sodipodi:rx="1.625"
       sodipodi:ry="1.625"
       d="m 453.0625,253.73718 a 1.625,1.625 0 0 1 -1.625,1.625 1.625,1.625 0 0 1 -1.625,-1.625 1.625,1.625 0 0 1 1.625,-1.625 1.625,1.625 0 0 1 1.625,1.625 z"
       transform="matrix(2.0166667,0,0,2.0166667,-456.52396,-92.65364)" />
    <path
       transform="matrix(2.0166667,0,0,2.0166667,-456.52396,-72.65364)"
       d="m 453.0625,253.73718 a 1.625,1.625 0 0 1 -1.625,1.625 1.625,1.625 0 0 1 -1.625,-1.625 1.625,1.625 0 0 1 1.625,-1.625 1.625,1.625 0 0 1 1.625,1.625 z"
       sodipodi:ry="1.625"
       sodipodi:rx="1.625"
       sodipodi:cy="253.73718"
       sodipodi:cx="451.4375"
       id="path3364"
       style="opacity:1;fill:#b2b2b2;fill-opacity:1;fill-rule:nonzero;stroke:#000000;stroke-width:0.5;stroke-linecap:round;stroke-linejoin:round;stroke-miterlimit:4;stroke-dasharray:none;stroke-dashoffset:0;stroke-opacity:1"
       sodipodi:type="arc" />
    <path
       transform="matrix(2.0166667,0,0,2.0166667,-456.52396,-52.65364)"
       d="m 453.0625,253.73718 a 1.625,1.625 0 0 1 -1.625,1.625 1.625,1.625 0 0 1 -1.625,-1.625 1.625,1.625 0 0 1 1.625,-1.625 1.625,1.625 0 0 1 1.625,1.625 z"
       sodipodi:ry="1.625"
       sodipodi:rx="1.625"
       sodipodi:cy="253.73718"
       sodipodi:cx="451.4375"
       id="path3366"
       style="opacity:1;fill:#b2b2b2;fill-opacity:1;fill-rule:nonzero;stroke:#000000;stroke-width:0.5;stroke-linecap:round;stroke-linejoin:round;stroke-miterlimit:4;stroke-dasharray:none;stroke-dashoffset:0;stroke-opacity:1"
       sodipodi:type="arc" />
    <path
       sodipodi:type="arc"
       style="opacity:1;fill:#b2b2b2;fill-opacity:1;fill-rule:nonzero;stroke:#000000;stroke-width:0.5;stroke-linecap:round;stroke-linejoin:round;stroke-miterlimit:4;stroke-dasharray:none;stroke-dashoffset:0;stroke-opacity:1"
       id="path3368"
       sodipodi:cx="451.4375"
       sodipodi:cy="253.73718"
       sodipodi:rx="1.625"
       sodipodi:ry="1.625"
       d="m 453.0625,253.73718 a 1.625,1.625 0 0 1 -1.625,1.625 1.625,1.625 0 0 1 -1.625,-1.625 1.625,1.625 0 0 1 1.625,-1.625 1.625,1.625 0 0 1 1.625,1.625 z"
       transform="matrix(2.0166667,0,0,2.0166667,-456.52396,-32.65364)" />
    <path
       sodipodi:type="arc"
       style="opacity:1;fill:#b2b2b2;fill-opacity:1;fill-rule:nonzero;stroke:#000000;stroke-width:0.5;stroke-linecap:round;stroke-linejoin:round;stroke-miterlimit:4;stroke-dasharray:none;stroke-dashoffset:0;stroke-opacity:1"
       id="path3370"
       sodipodi:cx="451.4375"
       sodipodi:cy="253.73718"
       sodipodi:rx="1.625"
       sodipodi:ry="1.625"
       d="m 453.0625,253.73718 a 1.625,1.625 0 0 1 -1.625,1.625 1.625,1.625 0 0 1 -1.625,-1.625 1.625,1.625 0 0 1 1.625,-1.625 1.625,1.625 0 0 1 1.625,1.625 z"
       transform="matrix(2.0166667,0,0,2.0166667,-456.52396,-12.65364)" />
    <path
       sodipodi:type="arc"
       style="opacity:1;fill:#b2b2b2;fill-opacity:1;fill-rule:nonzero;stroke:#000000;stroke-width:0.5;stroke-linecap:round;stroke-linejoin:round;stroke-miterlimit:4;stroke-dasharray:none;stroke-dashoffset:0;stroke-opacity:1"
       id="path3372"
       sodipodi:cx="451.4375"
       sodipodi:cy="253.73718"
       sodipodi:rx="1.625"
       sodipodi:ry="1.625"
       d="m 453.0625,253.73718 a 1.625,1.625 0 0 1 -1.625,1.625 1.625,1.625 0 0 1 -1.625,-1.625 1.625,1.625 0 0 1 1.625,-1.625 1.625,1.625 0 0 1 1.625,1.625 z"
       transform="matrix(2.0166667,0,0,2.0166667,-456.52396,7.34636)" />
    <path
       sodipodi:type="arc"
       style="opacity:1;fill:#b2b2b2;fill-opacity:1;fill-rule:nonzero;stroke:#000000;stroke-width:0.5;stroke-linecap:round;stroke-linejoin:round;stroke-miterlimit:4;stroke-dasharray:none;stroke-dashoffset:0;stroke-opacity:1"
       id="path3374"
       sodipodi:cx="451.4375"
       sodipodi:cy="253.73718"
       sodipodi:rx="1.625"
       sodipodi:ry="1.625"
       d="m 453.0625,253.73718 a 1.625,1.625 0 0 1 -1.625,1.625 1.625,1.625 0 0 1 -1.625,-1.625 1.625,1.625 0 0 1 1.625,-1.625 1.625,1.625 0 0 1 1.625,1.625 z"
       transform="matrix(2.0166667,0,0,2.0166667,-456.52396,27.34636)" />
    <path
       transform="matrix(2.0166667,0,0,2.0166667,-456.52396,47.34636)"
       d="m 453.0625,253.73718 a 1.625,1.625 0 0 1 -1.625,1.625 1.625,1.625 0 0 1 -1.625,-1.625 1.625,1.625 0 0 1 1.625,-1.625 1.625,1.625 0 0 1 1.625,1.625 z"
       sodipodi:ry="1.625"
       sodipodi:rx="1.625"
       sodipodi:cy="253.73718"
       sodipodi:cx="451.4375"
       id="path3376"
       style="opacity:1;fill:#b2b2b2;fill-opacity:1;fill-rule:nonzero;stroke:#000000;stroke-width:0.5;stroke-linecap:round;stroke-linejoin:round;stroke-miterlimit:4;stroke-dasharray:none;stroke-dashoffset:0;stroke-opacity:1"
       sodipodi:type="arc" />
    <path
       transform="matrix(2.0166667,0,0,2.0166667,-456.52396,67.34636)"
       d="m 453.0625,253.73718 a 1.625,1.625 0 0 1 -1.625,1.625 1.625,1.625 0 0 1 -1.625,-1.625 1.625,1.625 0 0 1 1.625,-1.625 1.625,1.625 0 0 1 1.625,1.625 z"
       sodipodi:ry="1.625"
       sodipodi:rx="1.625"
       sodipodi:cy="253.73718"
       sodipodi:cx="451.4375"
       id="path3378"
       style="opacity:1;fill:#b2b2b2;fill-opacity:1;fill-rule:nonzero;stroke:#000000;stroke-width:0.5;stroke-linecap:round;stroke-linejoin:round;stroke-miterlimit:4;stroke-dasharray:none;stroke-dashoffset:0;stroke-opacity:1"
       sodipodi:type="arc" />
    <path
       transform="matrix(2.0166667,0,0,2.0166667,-456.52396,87.34636)"
       d="m 453.0625,253.73718 a 1.625,1.625 0 0 1 -1.625,1.625 1.625,1.625 0 0 1 -1.625,-1.625 1.625,1.625 0 0 1 1.625,-1.625 1.625,1.625 0 0 1 1.625,1.625 z"
       sodipodi:ry="1.625"
       sodipodi:rx="1.625"
       sodipodi:cy="253.73718"
       sodipodi:cx="451.4375"
       id="path3380"
       style="opacity:1;fill:#b2b2b2;fill-opacity:1;fill-rule:nonzero;stroke:#000000;stroke-width:0.5;stroke-linecap:round;stroke-linejoin:round;stroke-miterlimit:4;stroke-dasharray:none;stroke-dashoffset:0;stroke-opacity:1"
       sodipodi:type="arc" />
    <path
       transform="matrix(2.0166667,0,0,2.0166667,-456.52396,107.34636)"
       d="m 453.0625,253.73718 a 1.625,1.625 0 0 1 -1.625,1.625 1.625,1.625 0 0 1 -1.625,-1.625 1.625,1.625 0 0 1 1.625,-1.625 1.625,1.625 0 0 1 1.625,1.625 z"
       sodipodi:ry="1.625"
       sodipodi:rx="1.625"
       sodipodi:cy="253.73718"
       sodipodi:cx="451.4375"
       id="path3382"
       style="opacity:1;fill:#b2b2b2;fill-opacity:1;fill-rule:nonzero;stroke:#000000;stroke-width:0.5;stroke-linecap:round;stroke-linejoin:round;stroke-miterlimit:4;stroke-dasharray:none;stroke-dashoffset:0;stroke-opacity:1"
       sodipodi:type="arc" />
    <path
       sodipodi:type="arc"
       style="opacity:1;fill:#b2b2b2;fill-opacity:1;fill-rule:nonzero;stroke:#000000;stroke-width:0.5;stroke-linecap:round;stroke-linejoin:round;stroke-miterlimit:4;stroke-dasharray:none;stroke-dashoffset:0;stroke-opacity:1"
       id="path3384"
       sodipodi:cx="451.4375"
       sodipodi:cy="253.73718"
       sodipodi:rx="1.625"
       sodipodi:ry="1.625"
       d="m 453.0625,253.73718 a 1.625,1.625 0 0 1 -1.625,1.625 1.625,1.625 0 0 1 -1.625,-1.625 1.625,1.625 0 0 1 1.625,-1.625 1.625,1.625 0 0 1 1.625,1.625 z"
       transform="matrix(2.0166667,0,0,2.0166667,-456.52396,127.34636)" />
    <path
       sodipodi:type="arc"
       style="opacity:1;fill:#b2b2b2;fill-opacity:1;fill-rule:nonzero;stroke:#000000;stroke-width:0.5;stroke-linecap:round;stroke-linejoin:round;stroke-miterlimit:4;stroke-dasharray:none;stroke-dashoffset:0;stroke-opacity:1"
       id="path3386"
       sodipodi:cx="451.4375"
       sodipodi:cy="253.73718"
       sodipodi:rx="1.625"
       sodipodi:ry="1.625"
       d="m 453.0625,253.73718 a 1.625,1.625 0 0 1 -1.625,1.625 1.625,1.625 0 0 1 -1.625,-1.625 1.625,1.625 0 0 1 1.625,-1.625 1.625,1.625 0 0 1 1.625,1.625 z"
       transform="matrix(2.0166667,0,0,2.0166667,-456.52396,147.34636)" />
    <path
       sodipodi:type="arc"
       style="opacity:1;fill:#b2b2b2;fill-opacity:1;fill-rule:nonzero;stroke:#000000;stroke-width:0.5;stroke-linecap:round;stroke-linejoin:round;stroke-miterlimit:4;stroke-dasharray:none;stroke-dashoffset:0;stroke-opacity:1"
       id="path3388"
       sodipodi:cx="451.4375"
       sodipodi:cy="253.73718"
       sodipodi:rx="1.625"
       sodipodi:ry="1.625"
       d="m 453.0625,253.73718 a 1.625,1.625 0 0 1 -1.625,1.625 1.625,1.625 0 0 1 -1.625,-1.625 1.625,1.625 0 0 1 1.625,-1.625 1.625,1.625 0 0 1 1.625,1.625 z"
       transform="matrix(2.0166667,0,0,2.0166667,-456.52396,167.34636)" />
    <path
       sodipodi:type="arc"
       style="opacity:1;fill:#b2b2b2;fill-opacity:1;fill-rule:nonzero;stroke:#000000;stroke-width:0.5;stroke-linecap:round;stroke-linejoin:round;stroke-miterlimit:4;stroke-dasharray:none;stroke-dashoffset:0;stroke-opacity:1"
       id="path3390"
       sodipodi:cx="451.4375"
       sodipodi:cy="253.73718"
       sodipodi:rx="1.625"
       sodipodi:ry="1.625"
       d="m 453.0625,253.73718 a 1.625,1.625 0 0 1 -1.625,1.625 1.625,1.625 0 0 1 -1.625,-1.625 1.625,1.625 0 0 1 1.625,-1.625 1.625,1.625 0 0 1 1.625,1.625 z"
       transform="matrix(2.0166667,0,0,2.0166667,-456.52396,187.34636)" />
    <path
       transform="matrix(2.0166667,0,0,2.0166667,-456.52396,207.34636)"
       d="m 453.0625,253.73718 a 1.625,1.625 0 0 1 -1.625,1.625 1.625,1.625 0 0 1 -1.625,-1.625 1.625,1.625 0 0 1 1.625,-1.625 1.625,1.625 0 0 1 1.625,1.625 z"
       sodipodi:ry="1.625"
       sodipodi:rx="1.625"
       sodipodi:cy="253.73718"
       sodipodi:cx="451.4375"
       id="path3392"
       style="opacity:1;fill:#b2b2b2;fill-opacity:1;fill-rule:nonzero;stroke:#000000;stroke-width:0.5;stroke-linecap:round;stroke-linejoin:round;stroke-miterlimit:4;stroke-dasharray:none;stroke-dashoffset:0;stroke-opacity:1"
       sodipodi:type="arc" />
    <path
       transform="matrix(2.0166667,0,0,2.0166667,-456.52396,227.34636)"
       d="m 453.0625,253.73718 a 1.625,1.625 0 0 1 -1.625,1.625 1.625,1.625 0 0 1 -1.625,-1.625 1.625,1.625 0 0 1 1.625,-1.625 1.625,1.625 0 0 1 1.625,1.625 z"
       sodipodi:ry="1.625"
       sodipodi:rx="1.625"
       sodipodi:cy="253.73718"
       sodipodi:cx="451.4375"
       id="path3394"
       style="opacity:1;fill:#b2b2b2;fill-opacity:1;fill-rule:nonzero;stroke:#000000;stroke-width:0.5;stroke-linecap:round;stroke-linejoin:round;stroke-miterlimit:4;stroke-dasharray:none;stroke-dashoffset:0;stroke-opacity:1"
       sodipodi:type="arc" />
    <path
       sodipodi:type="arc"
       style="opacity:1;fill:#b2b2b2;fill-opacity:1;fill-rule:nonzero;stroke:#000000;stroke-width:0.5;stroke-linecap:round;stroke-linejoin:round;stroke-miterlimit:4;stroke-dasharray:none;stroke-dashoffset:0;stroke-opacity:1"
       id="path3396"
       sodipodi:cx="451.4375"
       sodipodi:cy="253.73718"
       sodipodi:rx="1.625"
       sodipodi:ry="1.625"
       d="m 453.0625,253.73718 a 1.625,1.625 0 0 1 -1.625,1.625 1.625,1.625 0 0 1 -1.625,-1.625 1.625,1.625 0 0 1 1.625,-1.625 1.625,1.625 0 0 1 1.625,1.625 z"
       transform="matrix(2.0166667,0,0,2.0166667,-456.52396,247.34636)" />
    <path
       sodipodi:type="arc"
       style="opacity:1;fill:#b2b2b2;fill-opacity:1;fill-rule:nonzero;stroke:#000000;stroke-width:0.5;stroke-linecap:round;stroke-linejoin:round;stroke-miterlimit:4;stroke-dasharray:none;stroke-dashoffset:0;stroke-opacity:1"
       id="path3398"
       sodipodi:cx="451.4375"
       sodipodi:cy="253.73718"
       sodipodi:rx="1.625"
       sodipodi:ry="1.625"
       d="m 453.0625,253.73718 a 1.625,1.625 0 0 1 -1.625,1.625 1.625,1.625 0 0 1 -1.625,-1.625 1.625,1.625 0 0 1 1.625,-1.625 1.625,1.625 0 0 1 1.625,1.625 z"
       transform="matrix(2.0166667,0,0,2.0166667,-456.52396,267.34636)" />
    <path
       transform="matrix(2.0166667,0,0,2.0166667,-456.52396,287.34636)"
       d="m 453.0625,253.73718 a 1.625,1.625 0 0 1 -1.625,1.625 1.625,1.625 0 0 1 -1.625,-1.625 1.625,1.625 0 0 1 1.625,-1.625 1.625,1.625 0 0 1 1.625,1.625 z"
       sodipodi:ry="1.625"
       sodipodi:rx="1.625"
       sodipodi:cy="253.73718"
       sodipodi:cx="451.4375"
       id="path3400"
       style="opacity:1;fill:#b2b2b2;fill-opacity:1;fill-rule:nonzero;stroke:#000000;stroke-width:0.5;stroke-linecap:round;stroke-linejoin:round;stroke-miterlimit:4;stroke-dasharray:none;stroke-dashoffset:0;stroke-opacity:1"
       sodipodi:type="arc" />
    <path
       transform="matrix(2.0166667,0,0,2.0166667,-456.52396,307.34636)"
       d="m 453.0625,253.73718 a 1.625,1.625 0 0 1 -1.625,1.625 1.625,1.625 0 0 1 -1.625,-1.625 1.625,1.625 0 0 1 1.625,-1.625 1.625,1.625 0 0 1 1.625,1.625 z"
       sodipodi:ry="1.625"
       sodipodi:rx="1.625"
       sodipodi:cy="253.73718"
       sodipodi:cx="451.4375"
       id="path3402"
       style="opacity:1;fill:#b2b2b2;fill-opacity:1;fill-rule:nonzero;stroke:#000000;stroke-width:0.5;stroke-linecap:round;stroke-linejoin:round;stroke-miterlimit:4;stroke-dasharray:none;stroke-dashoffset:0;stroke-opacity:1"
       sodipodi:type="arc" />
    <path
       transform="matrix(2.0166667,0,0,2.0166667,-456.52396,327.34636)"
       d="m 453.0625,253.73718 a 1.625,1.625 0 0 1 -1.625,1.625 1.625,1.625 0 0 1 -1.625,-1.625 1.625,1.625 0 0 1 1.625,-1.625 1.625,1.625 0 0 1 1.625,1.625 z"
       sodipodi:ry="1.625"
       sodipodi:rx="1.625"
       sodipodi:cy="253.73718"
       sodipodi:cx="451.4375"
       id="path3404"
       style="opacity:1;fill:#b2b2b2;fill-opacity:1;fill-rule:nonzero;stroke:#000000;stroke-width:0.5;stroke-linecap:round;stroke-linejoin:round;stroke-miterlimit:4;stroke-dasharray:none;stroke-dashoffset:0;stroke-opacity:1"
       sodipodi:type="arc" />
    <path
       transform="matrix(2.0166667,0,0,2.0166667,-456.52396,347.34636)"
       d="m 453.0625,253.73718 a 1.625,1.625 0 0 1 -1.625,1.625 1.625,1.625 0 0 1 -1.625,-1.625 1.625,1.625 0 0 1 1.625,-1.625 1.625,1.625 0 0 1 1.625,1.625 z"
       sodipodi:ry="1.625"
       sodipodi:rx="1.625"
       sodipodi:cy="253.73718"
       sodipodi:cx="451.4375"
       id="path3406"
       style="opacity:1;fill:#b2b2b2;fill-opacity:1;fill-rule:nonzero;stroke:#000000;stroke-width:0.5;stroke-linecap:round;stroke-linejoin:round;stroke-miterlimit:4;stroke-dasharray:none;stroke-dashoffset:0;stroke-opacity:1"
       sodipodi:type="arc" />
    <path
       transform="matrix(2.0166667,0,0,2.0166667,-456.52396,-252.65364)"
       d="m 453.0625,253.73718 a 1.625,1.625 0 0 1 -1.625,1.625 1.625,1.625 0 0 1 -1.625,-1.625 1.625,1.625 0 0 1 1.625,-1.625 1.625,1.625 0 0 1 1.625,1.625 z"
       sodipodi:ry="1.625"
       sodipodi:rx="1.625"
       sodipodi:cy="253.73718"
       sodipodi:cx="451.4375"
       id="path3412"
       style="opacity:1;fill:#b2b2b2;fill-opacity:1;fill-rule:nonzero;stroke:#000000;stroke-width:0.5;stroke-linecap:round;stroke-linejoin:round;stroke-miterlimit:4;stroke-dasharray:none;stroke-dashoffset:0;stroke-opacity:1"
       sodipodi:type="arc" />
    <path
       sodipodi:type="arc"
       style="opacity:1;fill:#b2b2b2;fill-opacity:1;fill-rule:nonzero;stroke:#000000;stroke-width:0.5;stroke-linecap:round;stroke-linejoin:round;stroke-miterlimit:4;stroke-dasharray:none;stroke-dashoffset:0;stroke-opacity:1"
       id="path3414"
       sodipodi:cx="451.4375"
       sodipodi:cy="253.73718"
       sodipodi:rx="1.625"
       sodipodi:ry="1.625"
       d="m 453.0625,253.73718 a 1.625,1.625 0 0 1 -1.625,1.625 1.625,1.625 0 0 1 -1.625,-1.625 1.625,1.625 0 0 1 1.625,-1.625 1.625,1.625 0 0 1 1.625,1.625 z"
       transform="matrix(2.0166667,0,0,2.0166667,-456.52396,367.34636)" />
    <path
       transform="matrix(2.0166667,0,0,2.0166667,-456.52396,389.34636)"
       d="m 453.0625,253.73718 a 1.625,1.625 0 0 1 -1.625,1.625 1.625,1.625 0 0 1 -1.625,-1.625 1.625,1.625 0 0 1 1.625,-1.625 1.625,1.625 0 0 1 1.625,1.625 z"
       sodipodi:ry="1.625"
       sodipodi:rx="1.625"
       sodipodi:cy="253.73718"
       sodipodi:cx="451.4375"
       id="path3416"
       style="opacity:1;fill:#b2b2b2;fill-opacity:1;fill-rule:nonzero;stroke:#000000;stroke-width:0.5;stroke-linecap:round;stroke-linejoin:round;stroke-miterlimit:4;stroke-dasharray:none;stroke-dashoffset:0;stroke-opacity:1"
       sodipodi:type="arc" />
  </g>
</svg>
